<mxfile host="www.draw.io" modified="2019-10-30T03:23:05.064Z" agent="Mozilla/5.0 (Macintosh; Intel Mac OS X 10_15) AppleWebKit/605.1.15 (KHTML, like Gecko) Version/13.0.2 Safari/605.1.15" etag="wso_x99whtFKsErP7bGC" version="12.1.8" type="github" pages="2">
  <diagram id="g3p1TrioR_m2be5ZjilE" name="Page-1">
    <mxGraphModel dx="1335" dy="764" grid="0" gridSize="10" guides="1" tooltips="1" connect="1" arrows="1" fold="1" page="1" pageScale="1" pageWidth="827" pageHeight="1169" math="0" shadow="0">
      <root>
        <mxCell id="0"/>
        <mxCell id="1" parent="0"/>
        <mxCell id="YFx6nTi4NT0PniofLmIu-2" value="Cadastro Voluntario" style="text;html=1;strokeColor=none;fillColor=none;align=center;verticalAlign=middle;whiteSpace=wrap;rounded=0;fontSize=15;" parent="1" vertex="1">
          <mxGeometry x="115" y="30" width="230" height="50" as="geometry"/>
        </mxCell>
        <mxCell id="YFx6nTi4NT0PniofLmIu-3" value="Email" style="text;html=1;strokeColor=none;fillColor=none;align=center;verticalAlign=middle;whiteSpace=wrap;rounded=0;" parent="1" vertex="1">
          <mxGeometry x="90" y="130" width="40" height="20" as="geometry"/>
        </mxCell>
        <mxCell id="YFx6nTi4NT0PniofLmIu-12" value="Email" style="text;html=1;strokeColor=none;fillColor=none;align=center;verticalAlign=middle;whiteSpace=wrap;rounded=0;" parent="1" vertex="1">
          <mxGeometry x="90" y="495" width="40" height="20" as="geometry"/>
        </mxCell>
        <mxCell id="YFx6nTi4NT0PniofLmIu-4" value="CPF" style="text;html=1;strokeColor=none;fillColor=none;align=center;verticalAlign=middle;whiteSpace=wrap;rounded=0;" parent="1" vertex="1">
          <mxGeometry x="90" y="180" width="40" height="20" as="geometry"/>
        </mxCell>
        <mxCell id="YFx6nTi4NT0PniofLmIu-5" value="SolicitarAfiliação" style="text;html=1;strokeColor=none;fillColor=none;align=center;verticalAlign=middle;whiteSpace=wrap;rounded=0;fontSize=15;" parent="1" vertex="1">
          <mxGeometry x="148.5" y="339" width="63" height="55" as="geometry"/>
        </mxCell>
        <mxCell id="YFx6nTi4NT0PniofLmIu-6" value="Nome" style="text;html=1;strokeColor=none;fillColor=none;align=center;verticalAlign=middle;whiteSpace=wrap;rounded=0;" parent="1" vertex="1">
          <mxGeometry x="90" y="450" width="40" height="20" as="geometry"/>
        </mxCell>
        <mxCell id="YFx6nTi4NT0PniofLmIu-7" value="Sexo" style="text;html=1;strokeColor=none;fillColor=none;align=center;verticalAlign=middle;whiteSpace=wrap;rounded=0;" parent="1" vertex="1">
          <mxGeometry x="95" y="540" width="40" height="20" as="geometry"/>
        </mxCell>
        <mxCell id="YFx6nTi4NT0PniofLmIu-8" value="Data de Nascimento" style="text;html=1;strokeColor=none;fillColor=none;align=center;verticalAlign=middle;whiteSpace=wrap;rounded=0;" parent="1" vertex="1">
          <mxGeometry x="90" y="600" width="40" height="20" as="geometry"/>
        </mxCell>
        <mxCell id="YFx6nTi4NT0PniofLmIu-9" value="Nacionalidade" style="text;html=1;strokeColor=none;fillColor=none;align=center;verticalAlign=middle;whiteSpace=wrap;rounded=0;" parent="1" vertex="1">
          <mxGeometry x="97.5" y="670" width="40" height="20" as="geometry"/>
        </mxCell>
        <mxCell id="YFx6nTi4NT0PniofLmIu-10" value="Endereço residencial" style="text;html=1;strokeColor=none;fillColor=none;align=center;verticalAlign=middle;whiteSpace=wrap;rounded=0;" parent="1" vertex="1">
          <mxGeometry x="92.5" y="740" width="40" height="20" as="geometry"/>
        </mxCell>
        <mxCell id="YFx6nTi4NT0PniofLmIu-11" value="Endereço comercial" style="text;html=1;strokeColor=none;fillColor=none;align=center;verticalAlign=middle;whiteSpace=wrap;rounded=0;" parent="1" vertex="1">
          <mxGeometry x="92.5" y="800" width="40" height="20" as="geometry"/>
        </mxCell>
        <mxCell id="YFx6nTi4NT0PniofLmIu-16" style="edgeStyle=orthogonalEdgeStyle;rounded=0;orthogonalLoop=1;jettySize=auto;html=1;exitX=0.5;exitY=1;exitDx=0;exitDy=0;entryX=0.5;entryY=0.5;entryDx=0;entryDy=0;entryPerimeter=0;" parent="1" source="YFx6nTi4NT0PniofLmIu-10" target="YFx6nTi4NT0PniofLmIu-10" edge="1">
          <mxGeometry relative="1" as="geometry"/>
        </mxCell>
        <mxCell id="YFx6nTi4NT0PniofLmIu-17" value="Profissão" style="text;html=1;strokeColor=none;fillColor=none;align=center;verticalAlign=middle;whiteSpace=wrap;rounded=0;" parent="1" vertex="1">
          <mxGeometry x="90" y="860" width="40" height="20" as="geometry"/>
        </mxCell>
        <mxCell id="YFx6nTi4NT0PniofLmIu-18" value="" style="rounded=0;whiteSpace=wrap;html=1;" parent="1" vertex="1">
          <mxGeometry x="190" y="130" width="120" height="20" as="geometry"/>
        </mxCell>
        <mxCell id="YFx6nTi4NT0PniofLmIu-19" value="" style="rounded=0;whiteSpace=wrap;html=1;" parent="1" vertex="1">
          <mxGeometry x="190" y="180" width="120" height="20" as="geometry"/>
        </mxCell>
        <mxCell id="YFx6nTi4NT0PniofLmIu-20" value="" style="rounded=0;whiteSpace=wrap;html=1;" parent="1" vertex="1">
          <mxGeometry x="180" y="450" width="120" height="20" as="geometry"/>
        </mxCell>
        <mxCell id="YFx6nTi4NT0PniofLmIu-22" value="" style="rounded=0;whiteSpace=wrap;html=1;" parent="1" vertex="1">
          <mxGeometry x="180" y="540" width="120" height="20" as="geometry"/>
        </mxCell>
        <mxCell id="YFx6nTi4NT0PniofLmIu-23" value="" style="rounded=0;whiteSpace=wrap;html=1;" parent="1" vertex="1">
          <mxGeometry x="180" y="600" width="120" height="20" as="geometry"/>
        </mxCell>
        <mxCell id="YFx6nTi4NT0PniofLmIu-24" value="" style="rounded=0;whiteSpace=wrap;html=1;" parent="1" vertex="1">
          <mxGeometry x="180" y="670" width="120" height="20" as="geometry"/>
        </mxCell>
        <mxCell id="YFx6nTi4NT0PniofLmIu-25" value="" style="rounded=0;whiteSpace=wrap;html=1;" parent="1" vertex="1">
          <mxGeometry x="180" y="740" width="120" height="20" as="geometry"/>
        </mxCell>
        <mxCell id="YFx6nTi4NT0PniofLmIu-26" value="" style="rounded=0;whiteSpace=wrap;html=1;" parent="1" vertex="1">
          <mxGeometry x="180" y="800" width="120" height="20" as="geometry"/>
        </mxCell>
        <mxCell id="YFx6nTi4NT0PniofLmIu-27" value="" style="rounded=0;whiteSpace=wrap;html=1;" parent="1" vertex="1">
          <mxGeometry x="180" y="495" width="120" height="20" as="geometry"/>
        </mxCell>
        <mxCell id="YFx6nTi4NT0PniofLmIu-28" value="" style="rounded=0;whiteSpace=wrap;html=1;" parent="1" vertex="1">
          <mxGeometry x="180" y="860" width="120" height="20" as="geometry"/>
        </mxCell>
        <mxCell id="fWIwZL0GhqT7BYiURoqr-2" value="" style="rounded=0;whiteSpace=wrap;html=1;fontSize=15;" vertex="1" parent="1">
          <mxGeometry x="209" y="245" width="82" height="33" as="geometry"/>
        </mxCell>
        <mxCell id="fWIwZL0GhqT7BYiURoqr-3" value="Enviar" style="text;html=1;strokeColor=none;fillColor=none;align=center;verticalAlign=middle;whiteSpace=wrap;rounded=0;fontSize=15;" vertex="1" parent="1">
          <mxGeometry x="230" y="251.5" width="40" height="20" as="geometry"/>
        </mxCell>
        <mxCell id="fWIwZL0GhqT7BYiURoqr-4" value="" style="rounded=0;whiteSpace=wrap;html=1;fontSize=15;" vertex="1" parent="1">
          <mxGeometry x="199.5" y="1011" width="82" height="33" as="geometry"/>
        </mxCell>
        <mxCell id="fWIwZL0GhqT7BYiURoqr-5" value="Enviar" style="text;html=1;strokeColor=none;fillColor=none;align=center;verticalAlign=middle;whiteSpace=wrap;rounded=0;fontSize=15;" vertex="1" parent="1">
          <mxGeometry x="220.5" y="1017.5" width="40" height="20" as="geometry"/>
        </mxCell>
        <mxCell id="fWIwZL0GhqT7BYiURoqr-6" value="" style="ellipse;whiteSpace=wrap;html=1;aspect=fixed;fontSize=15;" vertex="1" parent="1">
          <mxGeometry x="119.5" y="953.5" width="21" height="21" as="geometry"/>
        </mxCell>
        <mxCell id="fWIwZL0GhqT7BYiURoqr-7" value="" style="ellipse;whiteSpace=wrap;html=1;aspect=fixed;fontSize=15;" vertex="1" parent="1">
          <mxGeometry x="249" y="952.5" width="21" height="21" as="geometry"/>
        </mxCell>
        <mxCell id="fWIwZL0GhqT7BYiURoqr-8" value="Aceito o termo" style="text;html=1;strokeColor=none;fillColor=none;align=center;verticalAlign=middle;whiteSpace=wrap;rounded=0;fontSize=15;" vertex="1" parent="1">
          <mxGeometry x="78.5" y="974.5" width="102" height="18" as="geometry"/>
        </mxCell>
        <mxCell id="fWIwZL0GhqT7BYiURoqr-14" value="Não aceito o termo" style="text;html=1;strokeColor=none;fillColor=none;align=center;verticalAlign=middle;whiteSpace=wrap;rounded=0;fontSize=15;" vertex="1" parent="1">
          <mxGeometry x="199.5" y="973.5" width="129" height="20" as="geometry"/>
        </mxCell>
        <mxCell id="fWIwZL0GhqT7BYiURoqr-15" value="&lt;font color=&quot;#3399ff&quot;&gt;Clique aqui &lt;/font&gt;para Ler o termo de condições" style="text;html=1;strokeColor=none;fillColor=none;align=center;verticalAlign=middle;whiteSpace=wrap;rounded=0;fontSize=15;" vertex="1" parent="1">
          <mxGeometry x="66" y="911" width="298" height="21" as="geometry"/>
        </mxCell>
      </root>
    </mxGraphModel>
  </diagram>
  <diagram id="3ZAKU6I4pWxx3hjBQ7JC" name="Page-2">
    <mxGraphModel dx="1103" dy="764" grid="0" gridSize="10" guides="1" tooltips="1" connect="1" arrows="1" fold="1" page="1" pageScale="1" pageWidth="827" pageHeight="1169" math="0" shadow="0">
      <root>
        <mxCell id="wNg69eAuQMQDnLPYkDx4-0"/>
        <mxCell id="wNg69eAuQMQDnLPYkDx4-1" parent="wNg69eAuQMQDnLPYkDx4-0"/>
        <mxCell id="wNg69eAuQMQDnLPYkDx4-2" value="" style="shape=partialRectangle;right=0;left=0;strokeColor=#dddddd;fillColor=#ffffff;whiteSpace=wrap;fontSize=15;" vertex="1" parent="wNg69eAuQMQDnLPYkDx4-1">
          <mxGeometry x="20" y="98" width="703" height="318" as="geometry"/>
        </mxCell>
        <mxCell id="wNg69eAuQMQDnLPYkDx4-9" value="" style="strokeColor=inherit;fillColor=inherit;gradientColor=inherit;html=1;shadow=0;dashed=0;shape=mxgraph.bootstrap.horLines;resizeWidth=1;" vertex="1" parent="wNg69eAuQMQDnLPYkDx4-2">
          <mxGeometry width="703" height="50" relative="1" as="geometry">
            <mxPoint y="40" as="offset"/>
          </mxGeometry>
        </mxCell>
        <mxCell id="wNg69eAuQMQDnLPYkDx4-10" value="Jennifer@google.com" style="html=1;shadow=0;dashed=0;shape=mxgraph.bootstrap.rect;strokeColor=none;fillColor=none;fontSize=14;align=left;whiteSpace=wrap;resizeHeight=1;" vertex="1" parent="wNg69eAuQMQDnLPYkDx4-9">
          <mxGeometry width="150" height="50" relative="1" as="geometry">
            <mxPoint x="10" as="offset"/>
          </mxGeometry>
        </mxCell>
        <mxCell id="wNg69eAuQMQDnLPYkDx4-11" value="" style="shape=ellipse;strokeColor=none;fillColor=#dddddd;html=1;" vertex="1" parent="wNg69eAuQMQDnLPYkDx4-9">
          <mxGeometry y="0.5" width="20" height="20" relative="1" as="geometry">
            <mxPoint x="200" y="-15" as="offset"/>
          </mxGeometry>
        </mxCell>
        <mxCell id="wNg69eAuQMQDnLPYkDx4-12" value="" style="html=1;shadow=0;dashed=0;shape=mxgraph.bootstrap.user;strokeColor=none;fillColor=#999999;" vertex="1" parent="wNg69eAuQMQDnLPYkDx4-11">
          <mxGeometry x="0.5" y="0.5" width="14" height="12" relative="1" as="geometry">
            <mxPoint x="-7" y="-6" as="offset"/>
          </mxGeometry>
        </mxCell>
        <mxCell id="wNg69eAuQMQDnLPYkDx4-13" value="John Boo&#xa;" style="html=1;shadow=0;dashed=0;shape=mxgraph.bootstrap.rect;strokeColor=none;fillColor=none;fontSize=14;align=left;whiteSpace=wrap;resizeHeight=1;" vertex="1" parent="wNg69eAuQMQDnLPYkDx4-9">
          <mxGeometry width="150" height="50" relative="1" as="geometry">
            <mxPoint x="230" as="offset"/>
          </mxGeometry>
        </mxCell>
        <mxCell id="wNg69eAuQMQDnLPYkDx4-15" value="&lt;table cellpadding=&quot;0&quot; cellspacing=&quot;0&quot; style=&quot;width:100%;height:100%;&quot;&gt;&lt;tr&gt;&lt;td align=&quot;center&quot; valign=&quot;middle&quot; width=&quot;50%&quot;&gt;15 Sep, 8:56 AM &lt;font color=&quot;#dddddd&quot;&gt;(2013)&lt;br&gt;&lt;br&gt;&lt;/font&gt;&lt;/td&gt;&lt;/tr&gt;&lt;/table&gt;" style="html=1;shadow=0;dashed=0;shape=mxgraph.bootstrap.rect;strokeColor=none;fillColor=none;fontSize=14;align=left;overflow=fill;whiteSpace=wrap;resizeHeight=1;" vertex="1" parent="wNg69eAuQMQDnLPYkDx4-9">
          <mxGeometry width="160" height="50" relative="1" as="geometry">
            <mxPoint x="386" y="3" as="offset"/>
          </mxGeometry>
        </mxCell>
        <mxCell id="wNg69eAuQMQDnLPYkDx4-60" value="" style="strokeColor=#999999;verticalLabelPosition=bottom;shadow=0;dashed=0;fillColor=#ffffff;verticalAlign=top;strokeWidth=2;html=1;shape=mxgraph.mockup.misc.editIcon;labelBackgroundColor=none;fontSize=15;" vertex="1" parent="wNg69eAuQMQDnLPYkDx4-9">
          <mxGeometry x="611.5" y="13" width="30" height="30" as="geometry"/>
        </mxCell>
        <mxCell id="wNg69eAuQMQDnLPYkDx4-16" value="" style="strokeColor=inherit;fillColor=inherit;gradientColor=inherit;html=1;shadow=0;dashed=0;shape=mxgraph.bootstrap.horLines;resizeWidth=1;" vertex="1" parent="wNg69eAuQMQDnLPYkDx4-2">
          <mxGeometry width="703" height="50" relative="1" as="geometry">
            <mxPoint y="90" as="offset"/>
          </mxGeometry>
        </mxCell>
        <mxCell id="wNg69eAuQMQDnLPYkDx4-17" value="Bob@google.com" style="html=1;shadow=0;dashed=0;shape=mxgraph.bootstrap.rect;strokeColor=none;fillColor=none;fontSize=14;align=left;whiteSpace=wrap;resizeHeight=1;" vertex="1" parent="wNg69eAuQMQDnLPYkDx4-16">
          <mxGeometry width="150" height="50" relative="1" as="geometry">
            <mxPoint x="10" as="offset"/>
          </mxGeometry>
        </mxCell>
        <mxCell id="wNg69eAuQMQDnLPYkDx4-18" value="" style="shape=ellipse;strokeColor=none;fillColor=#dddddd;html=1;" vertex="1" parent="wNg69eAuQMQDnLPYkDx4-16">
          <mxGeometry y="0.5" width="20" height="20" relative="1" as="geometry">
            <mxPoint x="200" y="-15" as="offset"/>
          </mxGeometry>
        </mxCell>
        <mxCell id="wNg69eAuQMQDnLPYkDx4-19" value="" style="html=1;shadow=0;dashed=0;shape=mxgraph.bootstrap.user;strokeColor=none;fillColor=#999999;" vertex="1" parent="wNg69eAuQMQDnLPYkDx4-18">
          <mxGeometry x="0.5" y="0.5" width="14" height="12" relative="1" as="geometry">
            <mxPoint x="-7" y="-6" as="offset"/>
          </mxGeometry>
        </mxCell>
        <mxCell id="wNg69eAuQMQDnLPYkDx4-20" value="Michael Robinson&#xa;" style="html=1;shadow=0;dashed=0;shape=mxgraph.bootstrap.rect;strokeColor=none;fillColor=none;fontSize=14;align=left;whiteSpace=wrap;resizeHeight=1;" vertex="1" parent="wNg69eAuQMQDnLPYkDx4-16">
          <mxGeometry width="150" height="50" relative="1" as="geometry">
            <mxPoint x="230" as="offset"/>
          </mxGeometry>
        </mxCell>
        <mxCell id="wNg69eAuQMQDnLPYkDx4-22" value="&lt;table cellpadding=&quot;0&quot; cellspacing=&quot;0&quot; style=&quot;width:100%;height:100%;&quot;&gt;&lt;tr&gt;&lt;td align=&quot;center&quot; valign=&quot;middle&quot; width=&quot;50%&quot;&gt;15 Sep, 7:12 AM &lt;font color=&quot;#dddddd&quot;&gt;(2013)&lt;br&gt;&lt;br&gt;&lt;/font&gt;&lt;/td&gt;&lt;/tr&gt;&lt;/table&gt;" style="html=1;shadow=0;dashed=0;shape=mxgraph.bootstrap.rect;strokeColor=none;fillColor=none;fontSize=14;align=left;overflow=fill;whiteSpace=wrap;resizeHeight=1;" vertex="1" parent="wNg69eAuQMQDnLPYkDx4-16">
          <mxGeometry width="160" height="50" relative="1" as="geometry">
            <mxPoint x="384.5" y="2" as="offset"/>
          </mxGeometry>
        </mxCell>
        <mxCell id="wNg69eAuQMQDnLPYkDx4-62" value="" style="strokeColor=#999999;verticalLabelPosition=bottom;shadow=0;dashed=0;fillColor=#ffffff;verticalAlign=top;strokeWidth=2;html=1;shape=mxgraph.mockup.misc.editIcon;labelBackgroundColor=none;fontSize=15;" vertex="1" parent="wNg69eAuQMQDnLPYkDx4-16">
          <mxGeometry x="612.5" y="11" width="30" height="30" as="geometry"/>
        </mxCell>
        <mxCell id="wNg69eAuQMQDnLPYkDx4-23" value="" style="strokeColor=inherit;fillColor=inherit;gradientColor=inherit;html=1;shadow=0;dashed=0;shape=mxgraph.bootstrap.horLines;resizeWidth=1;" vertex="1" parent="wNg69eAuQMQDnLPYkDx4-2">
          <mxGeometry width="703" height="50" relative="1" as="geometry">
            <mxPoint y="140" as="offset"/>
          </mxGeometry>
        </mxCell>
        <mxCell id="wNg69eAuQMQDnLPYkDx4-24" value="Michael@google.com" style="html=1;shadow=0;dashed=0;shape=mxgraph.bootstrap.rect;strokeColor=none;fillColor=none;fontSize=14;align=left;whiteSpace=wrap;resizeHeight=1;" vertex="1" parent="wNg69eAuQMQDnLPYkDx4-23">
          <mxGeometry width="150" height="50" relative="1" as="geometry">
            <mxPoint x="10" as="offset"/>
          </mxGeometry>
        </mxCell>
        <mxCell id="wNg69eAuQMQDnLPYkDx4-25" value="" style="shape=ellipse;strokeColor=none;fillColor=#dddddd;html=1;" vertex="1" parent="wNg69eAuQMQDnLPYkDx4-23">
          <mxGeometry y="0.5" width="20" height="20" relative="1" as="geometry">
            <mxPoint x="200" y="-15" as="offset"/>
          </mxGeometry>
        </mxCell>
        <mxCell id="wNg69eAuQMQDnLPYkDx4-26" value="" style="html=1;shadow=0;dashed=0;shape=mxgraph.bootstrap.user;strokeColor=none;fillColor=#999999;" vertex="1" parent="wNg69eAuQMQDnLPYkDx4-25">
          <mxGeometry x="0.5" y="0.5" width="14" height="12" relative="1" as="geometry">
            <mxPoint x="-7" y="-6" as="offset"/>
          </mxGeometry>
        </mxCell>
        <mxCell id="wNg69eAuQMQDnLPYkDx4-27" value="Alexander Robson&#xa;" style="html=1;shadow=0;dashed=0;shape=mxgraph.bootstrap.rect;strokeColor=none;fillColor=none;fontSize=14;align=left;whiteSpace=wrap;resizeHeight=1" vertex="1" parent="wNg69eAuQMQDnLPYkDx4-23">
          <mxGeometry width="150" height="50" relative="1" as="geometry">
            <mxPoint x="230" as="offset"/>
          </mxGeometry>
        </mxCell>
        <mxCell id="wNg69eAuQMQDnLPYkDx4-29" value="&lt;table cellpadding=&quot;0&quot; cellspacing=&quot;0&quot; style=&quot;width:100%;height:100%;&quot;&gt;&lt;tr&gt;&lt;td align=&quot;center&quot; valign=&quot;middle&quot; width=&quot;50%&quot;&gt;15 Sep, 4:34 AM &lt;font color=&quot;#dddddd&quot;&gt;(2013)&lt;br&gt;&lt;br&gt;&lt;/font&gt;&lt;/td&gt;&lt;/tr&gt;&lt;/table&gt;" style="html=1;shadow=0;dashed=0;shape=mxgraph.bootstrap.rect;strokeColor=none;fillColor=none;fontSize=14;align=left;overflow=fill;whiteSpace=wrap;resizeHeight=1;" vertex="1" parent="wNg69eAuQMQDnLPYkDx4-23">
          <mxGeometry width="160" height="50" relative="1" as="geometry">
            <mxPoint x="384.5" y="1" as="offset"/>
          </mxGeometry>
        </mxCell>
        <mxCell id="wNg69eAuQMQDnLPYkDx4-61" value="" style="strokeColor=#999999;verticalLabelPosition=bottom;shadow=0;dashed=0;fillColor=#ffffff;verticalAlign=top;strokeWidth=2;html=1;shape=mxgraph.mockup.misc.editIcon;labelBackgroundColor=none;fontSize=15;" vertex="1" parent="wNg69eAuQMQDnLPYkDx4-23">
          <mxGeometry x="611.5" y="9" width="30" height="30" as="geometry"/>
        </mxCell>
        <mxCell id="wNg69eAuQMQDnLPYkDx4-30" value="" style="strokeColor=inherit;fillColor=inherit;gradientColor=inherit;html=1;shadow=0;dashed=0;shape=mxgraph.bootstrap.horLines;resizeWidth=1;" vertex="1" parent="wNg69eAuQMQDnLPYkDx4-2">
          <mxGeometry width="703" height="50" relative="1" as="geometry">
            <mxPoint y="190" as="offset"/>
          </mxGeometry>
        </mxCell>
        <mxCell id="wNg69eAuQMQDnLPYkDx4-31" value="Jennifer@google.com" style="html=1;shadow=0;dashed=0;shape=mxgraph.bootstrap.rect;strokeColor=none;fillColor=none;fontSize=14;align=left;whiteSpace=wrap;resizeHeight=1;" vertex="1" parent="wNg69eAuQMQDnLPYkDx4-30">
          <mxGeometry width="150" height="50" relative="1" as="geometry">
            <mxPoint x="10" as="offset"/>
          </mxGeometry>
        </mxCell>
        <mxCell id="wNg69eAuQMQDnLPYkDx4-32" value="" style="shape=ellipse;strokeColor=none;fillColor=#dddddd;html=1;" vertex="1" parent="wNg69eAuQMQDnLPYkDx4-30">
          <mxGeometry y="0.5" width="20" height="20" relative="1" as="geometry">
            <mxPoint x="200" y="-15" as="offset"/>
          </mxGeometry>
        </mxCell>
        <mxCell id="wNg69eAuQMQDnLPYkDx4-33" value="" style="html=1;shadow=0;dashed=0;shape=mxgraph.bootstrap.user;strokeColor=none;fillColor=#999999;" vertex="1" parent="wNg69eAuQMQDnLPYkDx4-32">
          <mxGeometry x="0.5" y="0.5" width="14" height="12" relative="1" as="geometry">
            <mxPoint x="-7" y="-6" as="offset"/>
          </mxGeometry>
        </mxCell>
        <mxCell id="wNg69eAuQMQDnLPYkDx4-34" value="Jennifer Pinsker&#xa;" style="html=1;shadow=0;dashed=0;shape=mxgraph.bootstrap.rect;strokeColor=none;fillColor=none;fontSize=14;align=left;whiteSpace=wrap;resizeHeight=1;" vertex="1" parent="wNg69eAuQMQDnLPYkDx4-30">
          <mxGeometry width="150" height="50" relative="1" as="geometry">
            <mxPoint x="230" as="offset"/>
          </mxGeometry>
        </mxCell>
        <mxCell id="wNg69eAuQMQDnLPYkDx4-36" value="&lt;table cellpadding=&quot;0&quot; cellspacing=&quot;0&quot; style=&quot;width:100%;height:100%;&quot;&gt;&lt;tr&gt;&lt;td align=&quot;center&quot; valign=&quot;middle&quot; width=&quot;50%&quot;&gt;15 Sep, 2:08 AM &lt;font color=&quot;#dddddd&quot;&gt;(2013)&lt;br&gt;&lt;br&gt;&lt;/font&gt;&lt;/td&gt;&lt;/tr&gt;&lt;/table&gt;" style="html=1;shadow=0;dashed=0;shape=mxgraph.bootstrap.rect;strokeColor=none;fillColor=none;fontSize=14;align=left;overflow=fill;whiteSpace=wrap;resizeHeight=1;" vertex="1" parent="wNg69eAuQMQDnLPYkDx4-30">
          <mxGeometry width="160" height="50" relative="1" as="geometry">
            <mxPoint x="384.5" y="1" as="offset"/>
          </mxGeometry>
        </mxCell>
        <mxCell id="wNg69eAuQMQDnLPYkDx4-63" value="" style="strokeColor=#999999;verticalLabelPosition=bottom;shadow=0;dashed=0;fillColor=#ffffff;verticalAlign=top;strokeWidth=2;html=1;shape=mxgraph.mockup.misc.editIcon;labelBackgroundColor=none;fontSize=15;" vertex="1" parent="wNg69eAuQMQDnLPYkDx4-30">
          <mxGeometry x="609.5" y="7" width="30" height="30" as="geometry"/>
        </mxCell>
        <mxCell id="wNg69eAuQMQDnLPYkDx4-37" value="" style="strokeColor=inherit;fillColor=inherit;gradientColor=inherit;html=1;shadow=0;dashed=0;shape=mxgraph.bootstrap.horLines;resizeWidth=1;" vertex="1" parent="wNg69eAuQMQDnLPYkDx4-2">
          <mxGeometry width="703" height="50" relative="1" as="geometry">
            <mxPoint y="240" as="offset"/>
          </mxGeometry>
        </mxCell>
        <mxCell id="wNg69eAuQMQDnLPYkDx4-38" value="John@google.com" style="html=1;shadow=0;dashed=0;shape=mxgraph.bootstrap.rect;strokeColor=none;fillColor=none;fontSize=14;align=left;whiteSpace=wrap;resizeHeight=1;" vertex="1" parent="wNg69eAuQMQDnLPYkDx4-37">
          <mxGeometry width="150" height="50" relative="1" as="geometry">
            <mxPoint x="10" as="offset"/>
          </mxGeometry>
        </mxCell>
        <mxCell id="wNg69eAuQMQDnLPYkDx4-39" value="" style="shape=ellipse;strokeColor=none;fillColor=#dddddd;html=1;" vertex="1" parent="wNg69eAuQMQDnLPYkDx4-37">
          <mxGeometry y="0.5" width="20" height="20" relative="1" as="geometry">
            <mxPoint x="200" y="-15" as="offset"/>
          </mxGeometry>
        </mxCell>
        <mxCell id="wNg69eAuQMQDnLPYkDx4-40" value="" style="html=1;shadow=0;dashed=0;shape=mxgraph.bootstrap.user;strokeColor=none;fillColor=#999999;" vertex="1" parent="wNg69eAuQMQDnLPYkDx4-39">
          <mxGeometry x="0.5" y="0.5" width="14" height="12" relative="1" as="geometry">
            <mxPoint x="-7" y="-6" as="offset"/>
          </mxGeometry>
        </mxCell>
        <mxCell id="wNg69eAuQMQDnLPYkDx4-41" value="Bob Robson&#xa;" style="html=1;shadow=0;dashed=0;shape=mxgraph.bootstrap.rect;strokeColor=none;fillColor=none;fontSize=14;align=left;whiteSpace=wrap;resizeHeight=1;" vertex="1" parent="wNg69eAuQMQDnLPYkDx4-37">
          <mxGeometry width="150" height="50" relative="1" as="geometry">
            <mxPoint x="230" as="offset"/>
          </mxGeometry>
        </mxCell>
        <mxCell id="wNg69eAuQMQDnLPYkDx4-43" value="&lt;table cellpadding=&quot;0&quot; cellspacing=&quot;0&quot; style=&quot;width:100%;height:100%;&quot;&gt;&lt;tr&gt;&lt;td align=&quot;center&quot; valign=&quot;middle&quot; width=&quot;50%&quot;&gt;15 Sep, 8:56 AM &lt;font color=&quot;#dddddd&quot;&gt;(2013)&lt;br&gt;&lt;br&gt;&lt;/font&gt;&lt;/td&gt;&lt;/tr&gt;&lt;/table&gt;" style="html=1;shadow=0;dashed=0;shape=mxgraph.bootstrap.rect;strokeColor=none;fillColor=none;fontSize=14;align=left;overflow=fill;whiteSpace=wrap;resizeHeight=1;" vertex="1" parent="wNg69eAuQMQDnLPYkDx4-37">
          <mxGeometry width="160" height="50" relative="1" as="geometry">
            <mxPoint x="384.5" as="offset"/>
          </mxGeometry>
        </mxCell>
        <mxCell id="wNg69eAuQMQDnLPYkDx4-65" value="" style="strokeColor=#999999;verticalLabelPosition=bottom;shadow=0;dashed=0;fillColor=#ffffff;verticalAlign=top;strokeWidth=2;html=1;shape=mxgraph.mockup.misc.editIcon;labelBackgroundColor=none;fontSize=15;" vertex="1" parent="wNg69eAuQMQDnLPYkDx4-37">
          <mxGeometry x="609.5" y="5" width="30" height="30" as="geometry"/>
        </mxCell>
        <mxCell id="wNg69eAuQMQDnLPYkDx4-44" value="" style="strokeColor=inherit;fillColor=inherit;gradientColor=inherit;html=1;shadow=0;dashed=0;shape=mxgraph.bootstrap.horLines;resizeWidth=1;" vertex="1" parent="wNg69eAuQMQDnLPYkDx4-2">
          <mxGeometry width="703" height="50" relative="1" as="geometry">
            <mxPoint y="290" as="offset"/>
          </mxGeometry>
        </mxCell>
        <mxCell id="wNg69eAuQMQDnLPYkDx4-45" value="Michael@google.com" style="html=1;shadow=0;dashed=0;shape=mxgraph.bootstrap.rect;strokeColor=none;fillColor=none;fontSize=14;align=left;whiteSpace=wrap;resizeHeight=1;" vertex="1" parent="wNg69eAuQMQDnLPYkDx4-44">
          <mxGeometry width="150" height="50" relative="1" as="geometry">
            <mxPoint x="10" as="offset"/>
          </mxGeometry>
        </mxCell>
        <mxCell id="wNg69eAuQMQDnLPYkDx4-46" value="" style="shape=ellipse;strokeColor=none;fillColor=#dddddd;html=1;" vertex="1" parent="wNg69eAuQMQDnLPYkDx4-44">
          <mxGeometry y="0.5" width="20" height="20" relative="1" as="geometry">
            <mxPoint x="200" y="-15" as="offset"/>
          </mxGeometry>
        </mxCell>
        <mxCell id="wNg69eAuQMQDnLPYkDx4-47" value="" style="html=1;shadow=0;dashed=0;shape=mxgraph.bootstrap.user;strokeColor=none;fillColor=#999999;" vertex="1" parent="wNg69eAuQMQDnLPYkDx4-46">
          <mxGeometry x="0.5" y="0.5" width="14" height="12" relative="1" as="geometry">
            <mxPoint x="-7" y="-6" as="offset"/>
          </mxGeometry>
        </mxCell>
        <mxCell id="wNg69eAuQMQDnLPYkDx4-48" value="Michael Robinson&#xa;" style="html=1;shadow=0;dashed=0;shape=mxgraph.bootstrap.rect;strokeColor=none;fillColor=none;fontSize=14;align=left;whiteSpace=wrap;resizeHeight=1;" vertex="1" parent="wNg69eAuQMQDnLPYkDx4-44">
          <mxGeometry width="150" height="50" relative="1" as="geometry">
            <mxPoint x="230" as="offset"/>
          </mxGeometry>
        </mxCell>
        <mxCell id="wNg69eAuQMQDnLPYkDx4-50" value="&lt;table cellpadding=&quot;0&quot; cellspacing=&quot;0&quot; style=&quot;width:100%;height:100%;&quot;&gt;&lt;tr&gt;&lt;td align=&quot;center&quot; valign=&quot;middle&quot; width=&quot;50%&quot;&gt;15 Sep, 7:12 AM &lt;font color=&quot;#dddddd&quot;&gt;(2013)&lt;br&gt;&lt;br&gt;&lt;/font&gt;&lt;/td&gt;&lt;/tr&gt;&lt;/table&gt;" style="html=1;shadow=0;dashed=0;shape=mxgraph.bootstrap.rect;strokeColor=none;fillColor=none;fontSize=14;align=left;overflow=fill;whiteSpace=wrap;resizeHeight=1;" vertex="1" parent="wNg69eAuQMQDnLPYkDx4-44">
          <mxGeometry width="160" height="50" relative="1" as="geometry">
            <mxPoint x="384.5" y="-1" as="offset"/>
          </mxGeometry>
        </mxCell>
        <mxCell id="wNg69eAuQMQDnLPYkDx4-64" value="" style="strokeColor=#999999;verticalLabelPosition=bottom;shadow=0;dashed=0;fillColor=#ffffff;verticalAlign=top;strokeWidth=2;html=1;shape=mxgraph.mockup.misc.editIcon;labelBackgroundColor=none;fontSize=15;" vertex="1" parent="wNg69eAuQMQDnLPYkDx4-44">
          <mxGeometry x="608.5" y="3" width="30" height="30" as="geometry"/>
        </mxCell>
        <mxCell id="wNg69eAuQMQDnLPYkDx4-3" value="" style="html=1;shadow=0;dashed=0;shape=mxgraph.bootstrap.horLines;strokeColor=inherit;fillColor=#000000;fillOpacity=3;resizeWidth=1;" vertex="1" parent="wNg69eAuQMQDnLPYkDx4-2">
          <mxGeometry width="703" height="40" relative="1" as="geometry">
            <mxPoint y="-2" as="offset"/>
          </mxGeometry>
        </mxCell>
        <mxCell id="wNg69eAuQMQDnLPYkDx4-4" value="E-mail" style="html=1;shadow=0;dashed=0;shape=mxgraph.bootstrap.rect;strokeColor=none;fillColor=none;fontSize=14;fontStyle=1;align=left;whiteSpace=wrap;resizeHeight=1;" vertex="1" parent="wNg69eAuQMQDnLPYkDx4-3">
          <mxGeometry width="150" height="40" relative="1" as="geometry">
            <mxPoint x="10" as="offset"/>
          </mxGeometry>
        </mxCell>
        <mxCell id="wNg69eAuQMQDnLPYkDx4-5" value="Nome" style="html=1;shadow=0;dashed=0;shape=mxgraph.bootstrap.rect;strokeColor=none;fillColor=none;fontSize=14;fontStyle=1;align=left;whiteSpace=wrap;resizeHeight=1;" vertex="1" parent="wNg69eAuQMQDnLPYkDx4-3">
          <mxGeometry width="150" height="40" relative="1" as="geometry">
            <mxPoint x="200" as="offset"/>
          </mxGeometry>
        </mxCell>
        <mxCell id="wNg69eAuQMQDnLPYkDx4-7" value="Date" style="html=1;shadow=0;dashed=0;shape=mxgraph.bootstrap.rect;strokeColor=none;fillColor=none;fontSize=14;fontStyle=1;align=left;whiteSpace=wrap;resizeHeight=1;" vertex="1" parent="wNg69eAuQMQDnLPYkDx4-3">
          <mxGeometry width="100" height="40" relative="1" as="geometry">
            <mxPoint x="411" y="-2" as="offset"/>
          </mxGeometry>
        </mxCell>
        <mxCell id="wNg69eAuQMQDnLPYkDx4-8" value="" style="shape=triangle;direction=south;strokeColor=none;fillColor=#000000;" vertex="1" parent="wNg69eAuQMQDnLPYkDx4-3">
          <mxGeometry y="0.5" width="10" height="5" relative="1" as="geometry">
            <mxPoint x="452" y="-3.5" as="offset"/>
          </mxGeometry>
        </mxCell>
        <mxCell id="wNg69eAuQMQDnLPYkDx4-66" value="Ver perfil" style="text;html=1;strokeColor=none;fillColor=none;align=center;verticalAlign=middle;whiteSpace=wrap;rounded=0;labelBackgroundColor=none;fontSize=15;fontStyle=1" vertex="1" parent="wNg69eAuQMQDnLPYkDx4-3">
          <mxGeometry x="592" y="11" width="72" height="20" as="geometry"/>
        </mxCell>
        <mxCell id="wNg69eAuQMQDnLPYkDx4-53" value="" style="html=1;shadow=0;dashed=0;shape=mxgraph.bootstrap.rrect;strokeColor=none;rSize=5;fillColor=#222222;fontSize=15;" vertex="1" parent="wNg69eAuQMQDnLPYkDx4-1">
          <mxGeometry x="20" y="41" width="720" height="40" as="geometry"/>
        </mxCell>
        <mxCell id="wNg69eAuQMQDnLPYkDx4-54" value="Rede mais social" style="html=1;shadow=0;dashed=0;shape=mxgraph.bootstrap.rect;strokeColor=none;fillColor=none;fontColor=#999999;fontSize=14;whiteSpace=wrap;resizeHeight=1;" vertex="1" parent="wNg69eAuQMQDnLPYkDx4-53">
          <mxGeometry width="114" height="40" relative="1" as="geometry"/>
        </mxCell>
        <mxCell id="wNg69eAuQMQDnLPYkDx4-55" value="Home" style="html=1;shadow=0;dashed=0;shape=mxgraph.bootstrap.rect;fillColor=none;strokeColor=none;fontColor=#ffffff;whiteSpace=wrap;resizeHeight=1;" vertex="1" parent="wNg69eAuQMQDnLPYkDx4-53">
          <mxGeometry width="60" height="40" relative="1" as="geometry">
            <mxPoint x="111" as="offset"/>
          </mxGeometry>
        </mxCell>
        <mxCell id="wNg69eAuQMQDnLPYkDx4-56" value="&lt;font color=&quot;#ffffff&quot;&gt;Pendentes&lt;/font&gt;" style="html=1;shadow=0;dashed=0;shape=mxgraph.bootstrap.rect;strokeColor=none;fillColor=#000000;fontColor=#999999;whiteSpace=wrap;resizeHeight=1;labelBackgroundColor=none;labelBorderColor=#000000;" vertex="1" parent="wNg69eAuQMQDnLPYkDx4-53">
          <mxGeometry width="60" height="40" relative="1" as="geometry">
            <mxPoint x="172" as="offset"/>
          </mxGeometry>
        </mxCell>
        <mxCell id="wNg69eAuQMQDnLPYkDx4-67" value="" style="html=1;shadow=0;dashed=0;shape=mxgraph.bootstrap.rrect;strokeColor=none;rSize=5;fillColor=#222222;fontSize=15;" vertex="1" parent="wNg69eAuQMQDnLPYkDx4-1">
          <mxGeometry x="20" y="517" width="720" height="40" as="geometry"/>
        </mxCell>
        <mxCell id="wNg69eAuQMQDnLPYkDx4-68" value="Rede mais social" style="html=1;shadow=0;dashed=0;shape=mxgraph.bootstrap.rect;strokeColor=none;fillColor=none;fontColor=#999999;fontSize=14;whiteSpace=wrap;resizeHeight=1;" vertex="1" parent="wNg69eAuQMQDnLPYkDx4-67">
          <mxGeometry width="114" height="40" relative="1" as="geometry"/>
        </mxCell>
        <mxCell id="wNg69eAuQMQDnLPYkDx4-69" value="Home" style="html=1;shadow=0;dashed=0;shape=mxgraph.bootstrap.rect;fillColor=none;strokeColor=none;fontColor=#ffffff;whiteSpace=wrap;resizeHeight=1;" vertex="1" parent="wNg69eAuQMQDnLPYkDx4-67">
          <mxGeometry width="60" height="40" relative="1" as="geometry">
            <mxPoint x="111" as="offset"/>
          </mxGeometry>
        </mxCell>
        <mxCell id="wNg69eAuQMQDnLPYkDx4-70" value="&lt;font color=&quot;#ffffff&quot;&gt;Pendentes&lt;/font&gt;" style="html=1;shadow=0;dashed=0;shape=mxgraph.bootstrap.rect;strokeColor=none;fillColor=#000000;fontColor=#999999;whiteSpace=wrap;resizeHeight=1;labelBackgroundColor=none;labelBorderColor=#000000;" vertex="1" parent="wNg69eAuQMQDnLPYkDx4-67">
          <mxGeometry width="60" height="40" relative="1" as="geometry">
            <mxPoint x="172" as="offset"/>
          </mxGeometry>
        </mxCell>
        <mxCell id="wNg69eAuQMQDnLPYkDx4-71" value="E-mail" style="strokeWidth=1;shadow=0;dashed=0;align=center;html=1;shape=mxgraph.mockup.forms.anchor;align=right;spacingRight=2;fontColor=#666666;labelBackgroundColor=none;fillColor=none;" vertex="1" parent="wNg69eAuQMQDnLPYkDx4-1">
          <mxGeometry x="87" y="584" width="50" height="18" as="geometry"/>
        </mxCell>
        <mxCell id="wNg69eAuQMQDnLPYkDx4-72" value="ccaaio@me.com" style="strokeWidth=1;shadow=0;dashed=0;align=center;html=1;shape=mxgraph.mockup.forms.rrect;fillColor=#ffffff;rSize=0;fontColor=#666666;align=left;spacingLeft=3;strokeColor=#999999;labelBackgroundColor=none;" vertex="1" parent="wNg69eAuQMQDnLPYkDx4-1">
          <mxGeometry x="146" y="584" width="350" height="18" as="geometry"/>
        </mxCell>
        <mxCell id="wNg69eAuQMQDnLPYkDx4-73" value="Nome" style="strokeWidth=1;shadow=0;dashed=0;align=center;html=1;shape=mxgraph.mockup.forms.anchor;align=right;spacingRight=2;fontColor=#666666;labelBackgroundColor=none;fillColor=none;" vertex="1" parent="wNg69eAuQMQDnLPYkDx4-1">
          <mxGeometry x="87" y="619" width="50" height="18" as="geometry"/>
        </mxCell>
        <mxCell id="wNg69eAuQMQDnLPYkDx4-74" value="Caio" style="strokeWidth=1;shadow=0;dashed=0;align=center;html=1;shape=mxgraph.mockup.forms.rrect;fillColor=#ffffff;rSize=0;fontColor=#666666;align=left;spacingLeft=3;strokeColor=#999999;labelBackgroundColor=none;" vertex="1" parent="wNg69eAuQMQDnLPYkDx4-1">
          <mxGeometry x="146" y="619" width="350" height="18" as="geometry"/>
        </mxCell>
        <mxCell id="wNg69eAuQMQDnLPYkDx4-75" value="CPF" style="strokeWidth=1;shadow=0;dashed=0;align=center;html=1;shape=mxgraph.mockup.forms.anchor;align=right;spacingRight=2;fontColor=#666666;labelBackgroundColor=none;fillColor=none;" vertex="1" parent="wNg69eAuQMQDnLPYkDx4-1">
          <mxGeometry x="87" y="654" width="50" height="18" as="geometry"/>
        </mxCell>
        <mxCell id="wNg69eAuQMQDnLPYkDx4-76" value="446176788" style="strokeWidth=1;shadow=0;dashed=0;align=center;html=1;shape=mxgraph.mockup.forms.rrect;fillColor=#ffffff;rSize=0;fontColor=#666666;align=left;spacingLeft=3;strokeColor=#999999;labelBackgroundColor=none;" vertex="1" parent="wNg69eAuQMQDnLPYkDx4-1">
          <mxGeometry x="146" y="654" width="350" height="18" as="geometry"/>
        </mxCell>
        <mxCell id="wNg69eAuQMQDnLPYkDx4-77" value="Sexo" style="strokeWidth=1;shadow=0;dashed=0;align=center;html=1;shape=mxgraph.mockup.forms.anchor;align=right;spacingRight=2;fontColor=#666666;labelBackgroundColor=none;fillColor=none;" vertex="1" parent="wNg69eAuQMQDnLPYkDx4-1">
          <mxGeometry x="87" y="689" width="50" height="18" as="geometry"/>
        </mxCell>
        <mxCell id="wNg69eAuQMQDnLPYkDx4-78" value="Masculino" style="strokeWidth=1;shadow=0;dashed=0;align=center;html=1;shape=mxgraph.mockup.forms.rrect;fillColor=#ffffff;rSize=0;fontColor=#666666;align=left;spacingLeft=3;strokeColor=#999999;labelBackgroundColor=none;" vertex="1" parent="wNg69eAuQMQDnLPYkDx4-1">
          <mxGeometry x="146" y="689" width="350" height="18" as="geometry"/>
        </mxCell>
        <mxCell id="wNg69eAuQMQDnLPYkDx4-79" value="Data de Nascimento" style="strokeWidth=1;shadow=0;dashed=0;align=center;html=1;shape=mxgraph.mockup.forms.anchor;align=right;spacingRight=2;fontColor=#666666;labelBackgroundColor=none;fillColor=none;" vertex="1" parent="wNg69eAuQMQDnLPYkDx4-1">
          <mxGeometry x="87" y="724" width="50" height="18" as="geometry"/>
        </mxCell>
        <mxCell id="wNg69eAuQMQDnLPYkDx4-80" value="21/01/1996" style="strokeWidth=1;shadow=0;dashed=0;align=center;html=1;shape=mxgraph.mockup.forms.rrect;fillColor=#ffffff;rSize=0;fontColor=#666666;align=left;spacingLeft=3;strokeColor=#999999;labelBackgroundColor=none;" vertex="1" parent="wNg69eAuQMQDnLPYkDx4-1">
          <mxGeometry x="146" y="724" width="350" height="18" as="geometry"/>
        </mxCell>
        <mxCell id="wNg69eAuQMQDnLPYkDx4-82" value="Adolfo Laurenti" style="strokeWidth=1;shadow=0;dashed=0;align=center;html=1;shape=mxgraph.mockup.forms.rrect;fillColor=#ffffff;rSize=0;fontColor=#666666;align=left;spacingLeft=3;strokeColor=#999999;labelBackgroundColor=none;" vertex="1" parent="wNg69eAuQMQDnLPYkDx4-1">
          <mxGeometry x="146" y="760.5" width="350" height="18" as="geometry"/>
        </mxCell>
        <mxCell id="wNg69eAuQMQDnLPYkDx4-85" value="Endereço Residencial" style="strokeWidth=1;shadow=0;dashed=0;align=center;html=1;shape=mxgraph.mockup.forms.anchor;align=right;spacingRight=2;fontColor=#666666;labelBackgroundColor=none;fillColor=none;" vertex="1" parent="wNg69eAuQMQDnLPYkDx4-1">
          <mxGeometry x="87" y="768.5" width="50" height="2" as="geometry"/>
        </mxCell>
        <mxCell id="wNg69eAuQMQDnLPYkDx4-86" value="Alvaro Guião" style="strokeWidth=1;shadow=0;dashed=0;align=center;html=1;shape=mxgraph.mockup.forms.rrect;fillColor=#ffffff;rSize=0;fontColor=#666666;align=left;spacingLeft=3;strokeColor=#999999;labelBackgroundColor=none;" vertex="1" parent="wNg69eAuQMQDnLPYkDx4-1">
          <mxGeometry x="146" y="797" width="350" height="18" as="geometry"/>
        </mxCell>
        <mxCell id="wNg69eAuQMQDnLPYkDx4-87" value="Estudante" style="strokeWidth=1;shadow=0;dashed=0;align=center;html=1;shape=mxgraph.mockup.forms.rrect;fillColor=#ffffff;rSize=0;fontColor=#666666;align=left;spacingLeft=3;strokeColor=#999999;labelBackgroundColor=none;" vertex="1" parent="wNg69eAuQMQDnLPYkDx4-1">
          <mxGeometry x="146" y="833.5" width="350" height="18" as="geometry"/>
        </mxCell>
        <mxCell id="wNg69eAuQMQDnLPYkDx4-89" value="Endereço Comercial" style="strokeWidth=1;shadow=0;dashed=0;align=center;html=1;shape=mxgraph.mockup.forms.anchor;align=right;spacingRight=2;fontColor=#666666;labelBackgroundColor=none;fillColor=none;" vertex="1" parent="wNg69eAuQMQDnLPYkDx4-1">
          <mxGeometry x="87" y="797" width="50" height="18" as="geometry"/>
        </mxCell>
        <mxCell id="wNg69eAuQMQDnLPYkDx4-90" value="Profissão" style="strokeWidth=1;shadow=0;dashed=0;align=center;html=1;shape=mxgraph.mockup.forms.anchor;align=right;spacingRight=2;fontColor=#666666;labelBackgroundColor=none;fillColor=none;" vertex="1" parent="wNg69eAuQMQDnLPYkDx4-1">
          <mxGeometry x="87" y="836" width="50" height="18" as="geometry"/>
        </mxCell>
        <mxCell id="wNg69eAuQMQDnLPYkDx4-94" value="Aprovar" style="strokeWidth=1;shadow=0;dashed=0;align=center;html=1;shape=mxgraph.mockup.forms.rrect;rSize=0;fillColor=#eeeeee;strokeColor=#999999;gradientColor=#cccccc;align=left;spacingLeft=4;fontSize=17;fontColor=#666666;labelPosition=right;labelBackgroundColor=none;" vertex="1" parent="wNg69eAuQMQDnLPYkDx4-1">
          <mxGeometry x="146" y="898" width="15" height="15" as="geometry"/>
        </mxCell>
        <mxCell id="wNg69eAuQMQDnLPYkDx4-101" value="Reprovart" style="strokeWidth=1;shadow=0;dashed=0;align=center;html=1;shape=mxgraph.mockup.forms.rrect;rSize=0;fillColor=#eeeeee;strokeColor=#999999;gradientColor=#cccccc;align=left;spacingLeft=4;fontSize=17;fontColor=#666666;labelPosition=right;labelBackgroundColor=none;" vertex="1" parent="wNg69eAuQMQDnLPYkDx4-1">
          <mxGeometry x="258" y="898" width="15" height="15" as="geometry"/>
        </mxCell>
        <mxCell id="wNg69eAuQMQDnLPYkDx4-102" value="Enviar" style="html=1;shadow=0;dashed=0;shape=mxgraph.bootstrap.rrect;rSize=5;strokeColor=#dddddd;fillColor=#ffffff;align=center;fontSize=10;whiteSpace=wrap;labelBackgroundColor=none;" vertex="1" parent="wNg69eAuQMQDnLPYkDx4-1">
          <mxGeometry x="170" y="962" width="97" height="33" as="geometry"/>
        </mxCell>
      </root>
    </mxGraphModel>
  </diagram>
</mxfile>
